<?xml version="1.0" encoding="utf-8"?>
<!-- Generator: Adobe Illustrator 23.0.3, SVG Export Plug-In . SVG Version: 6.00 Build 0)  -->
<svg version="1.1" id="Lager_1" xmlns="http://www.w3.org/2000/svg" xmlns:xlink="http://www.w3.org/1999/xlink" x="0px" y="0px"
	 viewBox="0 0 56 40" style="enable-background:new 0 0 56 40;" xml:space="preserve">
<style type="text/css">
	.st0{fill:#FFFFFF;stroke:#000000;stroke-miterlimit:10;}
	.st1{fill:none;stroke:#000000;stroke-width:0.75;stroke-miterlimit:10;}
</style>
<path class="st0" d="M4.52,1l41.43,0.07c0,0,2.75,0.05,2.75,2.69c0,2.41,0,26.73,0,26.73s0.16,3-2.93,2.99c-3.38,0-41.25,0-41.25,0
	s-3.47,0.13-3.47-2.99c0-3.51,0-26.96,0-26.96S0.96,1,4.52,1z"/>
<path class="st0" d="M10.49,6.42l41.43,0.07c0,0,2.75,0.05,2.75,2.69c0,2.41,0,26.73,0,26.73s0.16,3-2.93,2.99
	c-3.38,0-41.25,0-41.25,0s-3.47,0.13-3.47-2.99c0-3.51,0-26.96,0-26.96S6.93,6.42,10.49,6.42z"/>
<rect x="7.23" y="15.54" width="47.23" height="6.39"/>
<rect x="40.56" y="25.08" class="st1" width="9.64" height="6.18"/>
</svg>
