<?xml version="1.0" encoding="utf-8"?>
<!-- Generator: Adobe Illustrator 23.0.3, SVG Export Plug-In . SVG Version: 6.00 Build 0)  -->
<svg version="1.1" id="Lager_1" xmlns="http://www.w3.org/2000/svg" xmlns:xlink="http://www.w3.org/1999/xlink" x="0px" y="0px"
	 viewBox="0 0 26 28" style="enable-background:new 0 0 26 28;" xml:space="preserve">
<style type="text/css">
	.st0{fill:#FFFFFF;}
</style>
<path d="M57.06,26.85l-12.64-6.38V2.39l12.64,4.07V26.85z M44.71,20.29l12.04,6.08V6.68L44.71,2.79V20.29z"/>
<path d="M56.91,6.72l-0.05-0.01L44.05,2.58L56.91-1l0.04,0.01l13.22,3.4L56.91,6.72z M45.08,2.6l11.83,3.81l12.2-3.97L56.91-0.69
	L45.08,2.6z"/>
<polygon points="51.17,8.49 50.87,8.49 50.87,4.49 63.02,0.52 63.11,0.81 51.17,4.7 "/>
<path d="M56.74,26.88V6.45L69.8,2.19l0.06,18.11L56.74,26.88z M57.07,6.69v19.65l12.45-6.24L69.47,2.65L57.07,6.69z"/>
<polygon class="st0" points="56.91,26.79 56.91,27.62 58.99,27.62 58.43,26.05 "/>
<polygon class="st0" points="54.97,27.28 55.94,26.35 56.99,26.84 54.97,28.11 "/>
<polygon class="st0" points="43.37,1.45 44.89,0.72 45.56,2.1 43.61,2.76 "/>
<polygon class="st0" points="42.43,3.09 44.4,2.36 44.4,3.77 42.67,4.4 "/>
<polygon class="st0" points="69.8,2.15 71.22,1.54 71.88,2.92 69.81,3.58 "/>
<polygon class="st0" points="68.14,1.08 69.93,0.45 69.81,2.3 68.35,1.92 "/>
<polygon class="st0" points="62.18,0.33 63.74,-0.6 64.4,0.9 62.86,0.52 "/>
<polygon class="st0" points="50.79,8.18 51.96,9.19 50.99,10.38 49.51,8.77 "/>
<path d="M12.88,27.93L0.54,21.71l-0.15-0.25V3.67l0.36-0.26l12.34,3.98l0.19,0.26v20.03L12.88,27.93z M0.94,21.29l11.78,5.95V7.85
	L0.94,4.06V21.29z"/>
<path d="M12.72,7.94L0.38,3.97l0.01-0.53L12.73,0l0.14,0l12.72,3.27l0.02,0.53L12.89,7.94H12.72z M1.43,3.72L12.8,7.39l11.73-3.82
	L12.81,0.56L1.43,3.72z"/>
<polygon points="7.11,11.91 6.56,11.91 6.64,5.51 18.87,1.52 19.05,2.04 7.19,5.91 "/>
<g>
	<path d="M12.64,7.56l12.93-4.19l0.18,18.04l-13.12,6.47 M12.97,27.44l12.45-6.24L25.36,3.77L12.97,7.8"/>
	<path d="M12.7,28l-0.12-0.25l0.44-0.22l-0.11-0.22l12.37-6.2L25.22,3.96L13.01,7.93l-0.09-0.26l12.39-4.04l0.12,0.08l0-0.16
		L12.68,7.69l-0.09-0.26l12.93-4.19l0.18,0.13l0.18,18.04l-0.08,0.13L12.7,28z M25.53,13.06l0.03,8.14l-0.08,0.12l-7.47,3.74
		l7.6-3.75L25.53,13.06z"/>
</g>
<polygon class="st0" points="5.89,10.64 7.51,11.93 6.05,13.58 4.02,11.51 "/>
</svg>
