<?xml version="1.0" encoding="utf-8"?>
<!-- Generator: Adobe Illustrator 23.0.3, SVG Export Plug-In . SVG Version: 6.00 Build 0)  -->
<svg version="1.1" id="Lager_1" xmlns="http://www.w3.org/2000/svg" xmlns:xlink="http://www.w3.org/1999/xlink" x="0px" y="0px"
	 viewBox="0 0 44 28" style="enable-background:new 0 0 44 28;" xml:space="preserve">
<style type="text/css">
	.st0{fill:#FFFFFF;}
</style>
<path d="M29.07,24.45H0.53V1h28.54V24.45z M1.21,23.76h27.17V1.69H1.21V23.76z"/>
<polygon points="43.69,24.45 28.72,24.45 28.72,23.76 43,23.76 43,13.6 28.72,13.6 28.72,12.92 43.69,12.92 "/>
<polygon points="40.44,13.42 37.11,7.1 28.72,7.1 28.72,6.41 37.53,6.41 41.04,13.1 "/>
<g>
	<circle class="st0" cx="9.35" cy="23.67" r="3.94"/>
	<path d="M9.35,27.96c-2.36,0-4.29-1.92-4.29-4.29s1.92-4.29,4.29-4.29s4.29,1.92,4.29,4.29S11.71,27.96,9.35,27.96z M9.35,20.07
		c-1.99,0-3.6,1.62-3.6,3.6c0,1.99,1.62,3.6,3.6,3.6s3.6-1.62,3.6-3.6C12.95,21.68,11.33,20.07,9.35,20.07z"/>
</g>
<g>
	<circle class="st0" cx="36.03" cy="23.77" r="3.94"/>
	<path d="M36.03,28.06c-2.36,0-4.29-1.92-4.29-4.29s1.92-4.29,4.29-4.29s4.29,1.92,4.29,4.29S38.4,28.06,36.03,28.06z M36.03,20.17
		c-1.99,0-3.6,1.62-3.6,3.6s1.62,3.6,3.6,3.6s3.6-1.62,3.6-3.6S38.02,20.17,36.03,20.17z"/>
</g>
</svg>
